<svg width="210" height="120" viewBox="0 0 210 120" fill="none" xmlns="http://www.w3.org/2000/svg">
<g clip-path="url(#clip0_2378_3975)">
<path d="M105 120C162.99 120 210 117.316 210 114.004C210 110.693 162.99 108.008 105 108.008C47.0101 108.008 0 110.693 0 114.004C0 117.316 47.0101 120 105 120Z" fill="#F2F2F2"/>
<path d="M191.181 0H33.4409V4.98258H191.181V0Z" fill="#F2F2F2"/>
<path d="M37.6619 3.7074C38.3793 3.7074 38.9607 3.13006 38.9607 2.41788C38.9607 1.7057 38.3793 1.12836 37.6619 1.12836C36.9446 1.12836 36.3632 1.7057 36.3632 2.41788C36.3632 3.13006 36.9446 3.7074 37.6619 3.7074Z" fill="#FF2D20"/>
<path d="M41.883 3.7074C42.6003 3.7074 43.1818 3.13006 43.1818 2.41788C43.1818 1.7057 42.6003 1.12836 41.883 1.12836C41.1657 1.12836 40.5842 1.7057 40.5842 2.41788C40.5842 3.13006 41.1657 3.7074 41.883 3.7074Z" fill="#FF2D20"/>
<path d="M46.1041 3.7074C46.8214 3.7074 47.4029 3.13006 47.4029 2.41788C47.4029 1.7057 46.8214 1.12836 46.1041 1.12836C45.3868 1.12836 44.8053 1.7057 44.8053 2.41788C44.8053 3.13006 45.3868 3.7074 46.1041 3.7074Z" fill="#FF2D20"/>
<path d="M33.5526 78.8039L33.4408 78.8991V112.511H191.181V53.471L189.301 53.6126L33.5526 78.8039Z" fill="#3F3D56"/>
<path d="M88.8736 33.33H44.8246V35.0934H88.8736V33.33Z" fill="#3F3D56"/>
<path d="M88.8736 37.2097H44.8246V38.9731H88.8736V37.2097Z" fill="#3F3D56"/>
<path d="M59.7444 41.0893H44.8246V42.8528H59.7444V41.0893Z" fill="#3F3D56"/>
<path d="M178.703 82.2886H134.654V84.0521H178.703V82.2886Z" fill="white"/>
<path d="M178.703 86.1683H134.654V87.9318H178.703V86.1683Z" fill="white"/>
<path d="M149.574 90.048H134.654V91.8115H149.574V90.048Z" fill="white"/>
<path d="M107.286 110.885C108.243 110.885 109.019 110.114 109.019 109.164C109.019 108.214 108.243 107.444 107.286 107.444C106.329 107.444 105.553 108.214 105.553 109.164C105.553 110.114 106.329 110.885 107.286 110.885Z" fill="#F2F2F2"/>
<path d="M112.311 111.057C113.268 111.057 114.044 110.286 114.044 109.336C114.044 108.386 113.268 107.616 112.311 107.616C111.354 107.616 110.578 108.386 110.578 109.336C110.578 110.286 111.354 111.057 112.311 111.057Z" fill="#F2F2F2"/>
<path d="M117.336 111.229C118.293 111.229 119.068 110.459 119.068 109.508C119.068 108.558 118.293 107.788 117.336 107.788C116.379 107.788 115.603 108.558 115.603 109.508C115.603 110.459 116.379 111.229 117.336 111.229Z" fill="#F2F2F2"/>
<path d="M112.327 110.713C113.092 110.713 113.713 110.097 113.713 109.336C113.713 108.576 113.092 107.96 112.327 107.96C111.561 107.96 110.941 108.576 110.941 109.336C110.941 110.097 111.561 110.713 112.327 110.713Z" fill="#3F3D56"/>
<path d="M74.27 53.5156H59.3502V56.8952H74.27V53.5156Z" fill="#3F3D56"/>
<path d="M162.953 99.2482H148.033V102.628H162.953V99.2482Z" fill="white"/>
<path opacity="0.3" d="M66.8942 65.4706C72.5942 65.4706 77.215 60.8828 77.215 55.2234C77.215 49.5641 72.5942 44.9763 66.8942 44.9763C61.1942 44.9763 56.5734 49.5641 56.5734 55.2234C56.5734 60.8828 61.1942 65.4706 66.8942 65.4706Z" fill="#FF2D20"/>
<path opacity="0.3" d="M66.8942 62.0548C70.6942 62.0548 73.7748 58.9963 73.7748 55.2234C73.7748 51.4505 70.6942 48.392 66.8942 48.392C63.0942 48.392 60.0137 51.4505 60.0137 55.2234C60.0137 58.9963 63.0942 62.0548 66.8942 62.0548Z" fill="#FF2D20"/>
<path d="M66.8942 59.9675C69.5331 59.9675 71.6723 57.8435 71.6723 55.2234C71.6723 52.6034 69.5331 50.4794 66.8942 50.4794C64.2553 50.4794 62.116 52.6034 62.116 55.2234C62.116 57.8435 64.2553 59.9675 66.8942 59.9675Z" fill="#FF2D20"/>
<path opacity="0.3" d="M153.737 40.0749C159.437 40.0749 164.058 35.4871 164.058 29.8278C164.058 24.1684 159.437 19.5806 153.737 19.5806C148.037 19.5806 143.416 24.1684 143.416 29.8278C143.416 35.4871 148.037 40.0749 153.737 40.0749Z" fill="#FF2D20"/>
<path opacity="0.3" d="M153.737 36.6593C157.537 36.6593 160.618 33.6007 160.618 29.8278C160.618 26.0549 157.537 22.9964 153.737 22.9964C149.937 22.9964 146.857 26.0549 146.857 29.8278C146.857 33.6007 149.937 36.6593 153.737 36.6593Z" fill="#FF2D20"/>
<path d="M153.737 34.5719C156.376 34.5719 158.515 32.4479 158.515 29.8278C158.515 27.2077 156.376 25.0837 153.737 25.0837C151.098 25.0837 148.959 27.2077 148.959 29.8278C148.959 32.4479 151.098 34.5719 153.737 34.5719Z" fill="#FF2D20"/>
<path opacity="0.3" d="M155.577 111.203C161.277 111.203 165.898 106.615 165.898 100.956C165.898 95.2967 161.277 90.7089 155.577 90.7089C149.877 90.7089 145.256 95.2967 145.256 100.956C145.256 106.615 149.877 111.203 155.577 111.203Z" fill="#FF2D20"/>
<path opacity="0.3" d="M155.577 107.788C159.377 107.788 162.457 104.729 162.457 100.956C162.457 97.1832 159.377 94.1246 155.577 94.1246C151.777 94.1246 148.696 97.1832 148.696 100.956C148.696 104.729 151.777 107.788 155.577 107.788Z" fill="#FF2D20"/>
<path d="M155.577 105.7C158.216 105.7 160.355 103.576 160.355 100.956C160.355 98.336 158.216 96.212 155.577 96.212C152.938 96.212 150.799 98.336 150.799 100.956C150.799 103.576 152.938 105.7 155.577 105.7Z" fill="#FF2D20"/>
<path d="M17.1865 20.7526L21.4344 20.9162L21.6462 15.4936L17.3983 15.33L17.1865 20.7526Z" fill="#FF2D20"/>
<path d="M36.5605 34.3212C36.5605 34.3212 42.4432 31.5306 42.349 33.9406C42.2549 36.3507 36.4193 37.9362 36.4193 37.9362L36.5605 34.3212Z" fill="#FFB9B9"/>
<path d="M33.3331 54.7131C33.3331 54.7131 36.1084 61.4576 37.1339 66.3244C38.1593 71.1912 39.721 77.8889 37.7122 82.6389C35.7034 87.3889 29.9922 101.349 29.9334 102.856C29.8746 104.362 30.4226 105.892 29.2089 105.845C27.9952 105.798 21.3905 103.734 21.1224 102.818C20.8543 101.903 23.3758 99.5861 23.3758 99.5861L29.6022 80.2147L23.1059 67.5945L18.4201 86.4218L17.5024 109.92C17.5024 109.92 12.9981 108.54 12.3442 109.721C12.3442 109.721 10.3262 106.928 10.0698 105.711C9.81345 104.495 11.0229 81.3097 11.0229 81.3097C11.0229 81.3097 6.88835 54.9018 10.226 55.0303C13.5636 55.1588 26.6368 47.2143 33.3331 54.7131Z" fill="#2F2E41"/>
<path d="M29.2559 104.64C29.2559 104.64 32.3347 111.396 32.6264 111.709C32.918 112.022 34.9243 115.116 33.4072 115.058C31.8901 114.999 28.3079 113.353 25.6712 110.838C23.0345 108.323 19.5582 103.965 19.8734 103.675C20.1886 103.386 22.3478 102.564 22.3478 102.564L29.2559 104.64Z" fill="#2F2E41"/>
<path d="M16.9544 108.39C16.9544 108.39 17.1401 111.414 17.6999 112.643C18.2597 113.871 18.1891 115.679 16.672 115.62C15.1549 115.562 11.2339 114.807 11.2339 114.807C11.2339 114.807 11.0011 112.988 11.3163 112.699C11.6315 112.409 12.9746 109.142 12.403 108.215C11.8315 107.288 16.9544 108.39 16.9544 108.39Z" fill="#2F2E41"/>
<path d="M14.7099 10.2483C14.7099 10.2483 11.4757 15.2528 10.2149 16.4111C8.95418 17.5694 12.5011 20.1196 12.5011 20.1196L18.8494 20.9675C18.8494 20.9675 18.7696 15.2319 19.0965 14.6411C19.4235 14.0503 14.7099 10.2483 14.7099 10.2483Z" fill="#FFB9B9"/>
<path d="M20.2279 16.7967C20.2279 16.7967 18.92 19.16 17.7064 19.1132C16.4927 19.0665 10.2149 16.4111 9.94682 15.4957C9.67868 14.5802 7.86743 22.0532 7.86743 22.0532L23.2286 48.8933L26.9755 46.3222L25.16 30.5634L23.6689 22.0582L20.2279 16.7967Z" fill="#FF2D20"/>
<path d="M9.38024 40.8174C9.99299 42.0901 10.3757 43.4172 10.3226 44.7759C10.3203 44.8361 10.3179 44.8964 10.3125 44.9565C10.1672 47.7448 9.13263 50.9694 8.76147 53.3145C8.49216 54.9967 8.5688 56.2246 9.56032 56.5132C11.9642 57.2092 9.20984 57.7065 18.51 60.78C27.8102 63.8534 29.4332 61.2005 29.4567 60.598C29.4802 59.9955 28.1396 55.4183 28.4548 55.1287C28.77 54.8391 32.8649 58.919 34.1022 58.3632C35.3394 57.8074 34.2433 54.7481 34.2433 54.7481C34.2433 54.7481 31.4562 48.305 31.5151 46.7987C31.5739 45.2924 27.2932 38.1883 27.2932 38.1883L24.3816 19.3702C24.3816 19.3702 23.2621 16.9134 21.7567 16.5538C20.2514 16.1941 19.0024 17.0511 19.0024 17.0511L21.5214 22.5789L24.1791 32.3359L23.7345 35.9393C23.7345 35.9393 20.644 29.4844 18.6141 26.9926C16.5843 24.5008 12.2565 18.6017 12.2565 18.6017C12.2565 18.6017 11.2462 15.2168 12.0089 14.2053C12.7718 13.1908 8.82728 13.0389 7.14545 17.1981C6.25407 19.4024 4.80686 22.6896 3.90027 25.7503C3.09242 28.4617 2.71081 30.9964 3.51116 32.4453C4.73441 34.6587 7.81151 37.5679 9.38024 40.8174Z" fill="#575A89"/>
<path opacity="0.1" d="M3.5111 32.4453C4.73437 34.6587 7.81145 37.568 9.38018 40.8175C9.78992 39.3518 10.2898 37.8354 10.2898 37.8354C10.2898 37.8354 12.2069 27.6511 6.53605 25.0191C5.59642 24.9289 4.65666 25.1896 3.90022 25.7503C3.09235 28.4617 2.71075 30.9965 3.5111 32.4453Z" fill="black"/>
<path d="M26.0231 31.8035L30.8308 33.1955L37.5061 33.4525L38.1928 39.2114L27.2225 39.9959C27.2225 39.9959 24.4825 32.3476 26.0231 31.8035Z" fill="#575A89"/>
<path d="M18.1836 51.1667C18.1836 51.1667 24.6153 52.2262 23.1473 54.1479C21.6794 56.0695 15.9816 54.0492 15.9816 54.0492L18.1836 51.1667Z" fill="#FFB9B9"/>
<path opacity="0.1" d="M10.3125 44.9565C10.1672 47.7448 9.13263 50.9694 8.76147 53.3145C10.8104 55.2399 12.7588 56.9381 13.493 56.9663C15.0101 57.0247 17.4493 56.817 18.3478 57.1533C19.2463 57.4896 19.7733 51.7774 19.7733 51.7774C19.7733 51.7774 19.237 49.9465 16.8449 48.9493C15.2303 48.2746 12.1354 46.4448 10.3125 44.9565Z" fill="black"/>
<path d="M6.60668 23.2115C6.60668 23.2115 1.47204 22.4104 1.74943 30.869C2.02683 39.3275 1.20819 44.7267 3.27331 46.3148C5.33843 47.9028 12.0465 55.1004 13.5636 55.1588C15.0807 55.2172 17.5199 55.0094 18.4184 55.3457C19.3169 55.682 19.8438 49.9699 19.8438 49.9699C19.8438 49.9699 19.3076 48.139 16.9155 47.1417C14.5234 46.1445 8.88786 42.6087 8.93492 41.4037C8.98198 40.1987 10.3604 36.0278 10.3604 36.0278C10.3604 36.0278 12.2776 25.8435 6.60668 23.2115Z" fill="#575A89"/>
<path d="M19.2377 17.6587C22.9271 17.6587 25.918 14.6891 25.918 11.026C25.918 7.36295 22.9271 4.39343 19.2377 4.39343C15.5483 4.39343 12.5574 7.36295 12.5574 11.026C12.5574 14.6891 15.5483 17.6587 19.2377 17.6587Z" fill="#FFB9B9"/>
<path d="M23.7357 1.51963C23.8968 1.65746 24.0898 1.7536 24.2974 1.79948C24.4016 1.81793 24.509 1.79469 24.596 1.73484C24.683 1.67499 24.7427 1.58338 24.7619 1.48003C24.9147 1.79473 25.0872 2.13014 25.3992 2.29162C25.7113 2.4531 26.1938 2.31769 26.2388 1.97118C26.2843 2.23428 26.4016 2.47998 26.5778 2.68163C26.7714 2.86491 27.1225 2.91117 27.2915 2.70532C27.1549 3.44681 27.2392 4.20935 27.1963 4.96194C27.1534 5.71453 26.9512 6.51239 26.3786 7.00728C25.5434 7.72901 24.2874 7.55088 23.1888 7.41414C23.0227 7.37953 22.8503 7.38889 22.6889 7.44129C22.2776 7.6153 22.2962 8.18385 22.2907 8.62777C22.2571 9.40666 21.9466 10.1485 21.4143 10.7217C20.8821 11.2948 20.1624 11.6621 19.3832 11.7584C18.9472 11.8252 18.5022 11.7174 18.1462 11.4586C17.8342 11.1961 17.6749 10.7682 17.3175 10.571C16.7361 10.2503 16.0309 10.7181 15.6058 11.226C15.1807 11.734 14.7618 12.3588 14.1032 12.4518C13.2323 12.5747 12.5689 11.6935 12.2435 10.882C11.7945 9.7447 11.5793 8.52963 11.6108 7.30845C11.6423 6.08727 11.9197 4.88471 12.4266 3.77167C14.2452 -0.164201 20.4574 -0.786737 23.7357 1.51963Z" fill="#2F2E41"/>
<path d="M184.097 106.982C186.45 110.966 191.195 112.543 191.195 112.543C191.195 112.543 192.125 107.661 189.773 103.678C187.42 99.6942 182.675 98.1171 182.675 98.1171C182.675 98.1171 181.744 102.999 184.097 106.982Z" fill="#F2F2F2"/>
<path d="M185.565 105.592C189.634 107.829 191.338 112.5 191.338 112.5C191.338 112.5 186.446 113.544 182.377 111.306C178.309 109.069 176.604 104.398 176.604 104.398C176.604 104.398 181.496 103.354 185.565 105.592Z" fill="#FF2D20"/>
</g>
<defs>
<clipPath id="clip0_2378_3975">
<rect width="210" height="120" fill="white"/>
</clipPath>
</defs>
</svg>
